<?xml version="1.0" encoding="UTF-8"?>
<svg width="2500px" height="2500px" viewBox="0 0 2500 2500" version="1.1" xmlns="http://www.w3.org/2000/svg" xmlns:xlink="http://www.w3.org/1999/xlink">
    <!-- Generator: Sketch 63.1 (92452) - https://sketch.com -->
    <title>Combined Shape</title>
    <desc>Created with Sketch.</desc>
    <g id="Page-1" stroke="none" stroke-width="1" fill="none" fill-rule="evenodd">
        <path d="M1250,0 C1940.35594,0 2500,559.644063 2500,1250 C2500,1940.35594 1940.35594,2500 1250,2500 C559.644063,2500 0,1940.35594 0,1250 C0,559.644063 559.644063,0 1250,0 Z M883.1,683.6 L350,683.6 L350,1816.50115 L901.154735,1816.50156 C950.466842,1816.42348 999.663014,1810.02603 1047.4,1797.5 C1095.5,1784.8 1138.3,1765.3 1175.9,1738.8 C1213.5,1712.4 1243.4,1678.3 1265.6,1636.5 C1287.8,1594.7 1298.9,1545.2 1298.9,1488.1 C1298.9,1417.2 1281.7,1356.6 1247.3,1306.4 C1212.9,1256.2 1160.8,1221 1091,1200.9 C1141.7,1176.6 1180.1,1145.4 1206,1107.3 C1231.9,1069.2 1244.9,1021.6 1244.9,964.5 C1244.9,911.6 1236.2,867.2 1218.7,831.2 C1201.2,795.2 1176.6,766.4 1144.9,744.7 C1113.2,723 1075.2,707.4 1030.7,697.9 C986.2,688.4 937,683.6 883.1,683.6 L883.1,683.6 Z M1750.4,953.5 C1688,953.5 1631.1,964.6 1579.8,986.8 C1528.5,1009 1484.3,1039.4 1447.3,1078 C1410.3,1116.6 1381.7,1162.3 1361.6,1215.2 C1341.5,1268.1 1331.5,1325.2 1331.5,1386.5 C1331.5,1449.9 1341.3,1508.1 1360.8,1561 C1380.3,1613.9 1408.1,1659.3 1444.1,1697.4 C1480.1,1735.5 1524,1764.9 1575.8,1785.5 C1627.6,1806.1 1685.8,1816.4 1750.3,1816.4 C1843.4,1816.4 1922.7,1795.2 1988.3,1752.9 C2053.9,1710.6 2102.6,1640.3 2134.3,1541.9 L2134.3,1541.9 L1936,1541.9 C1928.6,1567.3 1908.5,1591.4 1875.7,1614.1 C1842.9,1636.8 1803.8,1648.2 1758.3,1648.2 C1694.8,1648.2 1646.1,1631.8 1612.3,1599 C1578.5,1566.3 1560,1513.4 1556.9,1440.7 L1556.9,1440.7 L2148.7,1440.7 C2152.9,1377.2 2147.6,1316.4 2132.8,1258.2 C2118,1200 2093.9,1148.2 2060.6,1102.7 C2027.3,1057.2 1984.7,1021 1932.9,994 C1881,967 1820.2,953.5 1750.4,953.5 Z M870.5,1311.9 C924.4,1311.9 967.8,1324.3 1000.6,1349.2 C1033.4,1374 1049.8,1415.6 1049.8,1473.7 C1049.8,1503.3 1044.7,1527.7 1034.7,1546.7 C1024.6,1565.7 1011.1,1580.8 994.2,1591.9 C977.3,1603 957.7,1610.9 935.5,1615.7 C912.6,1620.5 889.2,1622.9 865.7,1622.8 L865.7,1622.8 L599.2,1622.9 L599.2,1311.9 Z M1744,1123.1 C1799,1123.1 1840,1137.9 1867,1167.5 C1893.9,1197.1 1912.7,1240.5 1923.4,1297.5 L1923.4,1297.5 L1556.9,1297.5 C1557.9,1281.7 1561.4,1263.7 1567.2,1243.6 C1573,1223.5 1583,1204.5 1597.3,1186.5 C1611.6,1168.5 1630.6,1153.5 1654.4,1141.3 C1678.1,1129.2 1708,1123.1 1744,1123.1 Z M832.3,877.3 C853.9,877.2 875.4,879.1 896.6,882.8 C917.2,886.5 935.4,893.1 951.3,902.6 C967.2,912.1 979.9,925.4 989.4,942.3 C998.9,959.2 1003.70052,980.9 1003.70052,1007.3 C1003.8,1054.9 989.5,1089.2 960.9,1110.4 C932.3,1131.5 895.8,1142.1 851.4,1142.1 L851.4,1142.1 L851.4,1142.1 L599.2,1142.3 L599.2,877.3 Z M1976.2,741.1 L1518.3,741.1 L1518.3,868.1 L1976.2,868.1 L1976.2,741.1 Z" id="Combined-Shape" fill="#FFFFFF" fill-rule="nonzero"></path>
    </g>
</svg>