<?xml version="1.0" encoding="UTF-8"?>
<svg width="1051px" height="1217px" viewBox="0 0 1051 1217" version="1.1" xmlns="http://www.w3.org/2000/svg" xmlns:xlink="http://www.w3.org/1999/xlink">
    <!-- Generator: Sketch 63.1 (92452) - https://sketch.com -->
    <title>bkLogo</title>
    <desc>Created with Sketch.</desc>
    <g id="Page-1" stroke="none" stroke-width="1" fill="none" fill-rule="evenodd">
        <path d="M545.314,0 C588.304,1.889 630.944,9.921 673.344,22.086 L673.344,22.086 L673.344,499.015 L843.184,499.015 C853.584,469.37 863.264,439.488 872.124,409.251 C886.064,361.653 897.994,313.346 907.914,264.212 C907.674,264.212 907.444,264.094 907.204,263.976 C908.034,259.96 908.854,255.708 909.804,251.102 C916.064,218.386 925.154,170.315 932.004,133.11 C972.164,153.543 1011.854,173.858 1050.704,192.165 C1036.894,285.708 1016.224,377.243 989.054,466.063 C986.694,473.858 984.334,481.535 981.854,489.212 L981.854,489.212 L967.564,499.015 L856.774,574.841 L931.894,626.341 C931.894,626.571 931.774,626.811 931.654,626.931 C915.354,666.971 897.524,706.181 878.504,744.801 C847.324,807.871 812.594,869.051 774.334,928.231 L774.334,928.231 L774.334,665.311 C780.474,652.681 786.264,639.801 792.044,626.931 L792.044,626.931 L706.414,626.931 L673.344,604.371 L673.344,1069.611 C633.424,1120.391 590.784,1169.291 545.314,1216.181 L545.314,1216.181 Z M505.394,0 L505.394,1216.181 C460.039,1169.291 417.283,1120.391 377.362,1069.611 C314.173,989.291 257.834,904.251 208.937,815.201 C184.96,771.491 162.755,726.851 142.323,681.261 L176.692,626.931 L119.055,626.931 C101.811,585.001 86.22,542.362 72.047,499.015 C39.685,399.921 15.59,297.401 0,192.165 C120.354,135.59 247.323,59.527 377.362,22.086 C419.764,9.921 462.401,1.889 505.394,0 Z M377.362,626.931 L328.228,626.931 L288.307,690.001 C315.236,744.091 344.881,796.771 377.362,847.911 L377.362,626.931 Z M377.362,156.968 C298.11,184.37 216.377,226.535 142.913,264.212 C159.094,344.409 180.708,422.834 207.638,499.015 L377.362,499.015 L377.362,156.968 Z" id="bkLogo" fill="#FFFFFE"></path>
    </g>
</svg>