<?xml version="1.0" encoding="UTF-8"?>
<svg width="122px" height="90px" viewBox="0 0 122 90" version="1.1" xmlns="http://www.w3.org/2000/svg" xmlns:xlink="http://www.w3.org/1999/xlink">
    <!-- Generator: Sketch 63.1 (92452) - https://sketch.com -->
    <title>Creative_Cloud</title>
    <desc>Created with Sketch.</desc>
    <defs>
        <polygon id="path-1" points="0 0.39 121.5 0.39 121.5 90 0 90"></polygon>
    </defs>
    <g id="Page-1" stroke="none" stroke-width="1" fill="none" fill-rule="evenodd">
        <g id="Creative_Cloud">
            <mask id="mask-2" fill="white">
                <use xlink:href="#path-1"></use>
            </mask>
            <g id="a"></g>
            <path d="M121.5,43.195 L121.5,47.195 C121.462,47.412 121.414,47.625 121.389,47.841 C121.182,49.581 121.048,51.332 120.762,53.059 C119.828,58.672 117.809,63.889 114.809,68.713 C110.253,76.037 104.094,81.622 96.354,85.436 C91.8868027,87.6477497 87.0702888,89.0690882 82.118,89.637 C81.018,89.764 79.919,89.878 78.819,89.999 L36.135,89.999 C35.92,89.959 35.706,89.895 35.489,89.882 C31.185,89.611 27.044,88.63 23.097,86.903 C14.504,83.143 8.097,77.049 3.903,68.661 C2.04974325,64.9611575 0.850398475,60.968642 0.358,56.86 C0.237,55.861 0.119,54.863 0,53.865 L0,49.984 C0.041,49.769 0.104,49.554 0.117,49.338 C0.34,45.609 1.105,41.988 2.452,38.508 C6.077,29.144 12.396,22.199 21.376,17.704 C26.035,15.371 31.001,14.145 36.195,13.873 C38.738,13.741 41.279,13.883 43.807,14.222 C44.036,14.253 44.366,14.151 44.525,13.988 C48.16,10.275 52.299,7.259 56.966,4.973 C61.493,2.756 66.257,1.327 71.272,0.755 C72.452,0.62 73.635,0.509 74.817,0.387 L78.456,0.387 C78.694,0.424 78.933,0.466 79.171,0.494 C80.974,0.704 82.787,0.836 84.573,1.135 C90.145,2.07 95.332,4.07 100.132,7.041 C107.492,11.597 113.101,17.764 116.933,25.528 C119.149167,29.9972885 120.571991,34.8176337 121.138,39.774 C121.268,40.915 121.379,42.056 121.5,43.195 M53.565,17.312 C53.638,17.408 53.656,17.453 53.687,17.468 C56.1859759,18.6997696 58.5744358,20.1440869 60.826,21.785 C60.968,21.888 61.32,21.845 61.492,21.737 C67.68,17.816 74.388,16.463 81.594,17.741 C88.655,18.993 94.401,22.521 98.791,28.156 C103.762,34.533 105.657,41.744 104.285,49.767 C103.365,55.144 101.211,59.968 97.55,64.009 C90.87,71.376 82.505,74.423 72.658,73.133 C66.596,72.339 61.363,69.724 57.032,65.347 C51.473,59.732 45.878,54.154 40.303,48.554 C39.56,47.808 38.733,47.208 37.663,47.077 C35.794,46.848 34.098,47.781 33.291,49.46 C32.571,50.959 32.664,52.649 34.226,54.185 C40.441,60.286 46.601,66.443 52.809,72.55 C53.871517,73.600531 55.0110204,74.5702287 56.218,75.451 C60.753,78.744 65.866,80.565 71.403,81.298 C75.749,81.872 80.061,81.749 84.34,80.787 C92.502,78.954 99.263,74.788 104.588,68.36 C108.985,63.048 111.644,56.944 112.571,50.091 C113.108192,46.1831115 112.996015,42.2133171 112.239,38.342 C111.004,32.012 108.326,26.348 104.035,21.527 C95.848,12.334 85.548,8.23 73.291,9.146 C68.576,9.498 64.116,10.883 59.919,13.08 C57.6541768,14.2567131 55.5237101,15.6756831 53.565,17.312 M50.566,81.488 C50.3973186,81.3317307 50.2293171,81.1747292 50.062,81.017 C47.521,78.618 44.966,76.234 42.455,73.804 C41.969,73.334 41.522,73.105 40.834,73.121 C38.291,73.183 35.746,73.194 33.24,72.628 C20.78,69.81 13.545,56.263 18.137,44.343 C21.759,34.944 31.786,29.22 41.674,30.985 C46.106,31.776 49.996,33.652 53.189,36.945 C57.083,40.965 61.093,44.87 65.029,48.849 C65.925,49.755 66.954,50.168 68.195,49.991 C69.799,49.762 71.076,48.998 71.656,47.425 C72.224,45.877 71.949,44.411 70.777,43.224 C66.646,39.039 62.613,34.749 58.315,30.742 C49.979,22.967 40.149,20.655 29.277,23.961 C14.654,28.404 6.096,43.504 9.437,58.404 C12.482,71.98 24.355,81.508 38.248,81.52 C42.127,81.524 46.007,81.5223094 49.886,81.52 C50.078,81.52 50.27,81.503 50.566,81.488" id="Shape" fill="#FFFFFF" fill-rule="nonzero" mask="url(#mask-2)"></path>
        </g>
    </g>
</svg>