<?xml version="1.0" encoding="UTF-8"?>
<svg width="1667px" height="2501px" viewBox="0 0 1667 2501" version="1.1" xmlns="http://www.w3.org/2000/svg" xmlns:xlink="http://www.w3.org/1999/xlink">
    <!-- Generator: Sketch 63.1 (92452) - https://sketch.com -->
    <title>figma</title>
    <desc>Created with Sketch.</desc>
    <g id="Page-1" stroke="none" stroke-width="1" fill="none" fill-rule="evenodd">
        <g id="figma" fill="#FFFFFF" fill-rule="nonzero">
            <path d="M416.75,2500.5 C646.796,2500.5 833.5,2313.796 833.5,2083.75 L833.5,1667 L416.75,1667 C186.704,1667 0,1853.704 0,2083.75 C0,2313.796 186.704,2500.5 416.75,2500.5 Z" id="path0_fill"></path>
            <path d="M0,1250.25 C0,1020.204 186.704,833.5 416.75,833.5 L833.5,833.5 L833.5,1667 L416.75,1667 C186.704,1667 0,1480.296 0,1250.25 Z" id="path1_fill"></path>
            <path d="M0,416.75 C0,186.704 186.704,0 416.75,0 L833.5,0 L833.5,833.5 L416.75,833.5 C186.704,833.5 0,646.796 0,416.75 Z" id="path1_fill_1_"></path>
            <path d="M833.5,0 L1250.25,0 C1480.296,0 1667,186.704 1667,416.75 C1667,646.796 1480.296,833.5 1250.25,833.5 L833.5,833.5 L833.5,0 Z" id="path2_fill"></path>
            <path d="M1667,1250.25 C1667,1480.296 1480.296,1667 1250.25,1667 C1020.204,1667 833.5,1480.296 833.5,1250.25 C833.5,1020.204 1020.204,833.5 1250.25,833.5 C1480.296,833.5 1667,1020.204 1667,1250.25 Z" id="path3_fill"></path>
        </g>
    </g>
</svg>