<?xml version="1.0" encoding="UTF-8"?>
<svg width="448px" height="448px" viewBox="0 0 448 448" version="1.1" xmlns="http://www.w3.org/2000/svg" xmlns:xlink="http://www.w3.org/1999/xlink">
    <!-- Generator: Sketch 63.1 (92452) - https://sketch.com -->
    <title>logo-instagram</title>
    <desc>Created with Sketch.</desc>
    <g id="Page-1" stroke="none" stroke-width="1" fill="none" fill-rule="evenodd">
        <g id="logo-instagram" fill="#FFFFFF" fill-rule="nonzero">
            <path d="M317.33,37.33 C368.816436,37.4837574 410.516243,79.1835644 410.67,130.67 L410.67,317.33 C410.516243,368.816436 368.816436,410.516243 317.33,410.67 L130.67,410.67 C79.1835644,410.516243 37.4837574,368.816436 37.33,317.33 L37.33,130.67 C37.4837574,79.1835644 79.1835644,37.4837574 130.67,37.33 L317.33,37.33 M317.33,0 L130.67,0 C58.8,0 0,58.8 0,130.67 L0,317.33 C0,389.2 58.8,448 130.67,448 L317.33,448 C389.2,448 448,389.2 448,317.33 L448,130.67 C448,58.8 389.2,0 317.33,0 Z" id="Shape"></path>
            <path d="M345.33,130.670065 C329.866027,130.670065 317.33,118.133973 317.33,102.67 C317.33,87.206027 329.866027,74.67 345.33,74.67 C360.793973,74.67 373.330065,87.206027 373.330065,102.67 C373.345975,110.100947 370.401114,117.232143 365.146628,122.486628 C359.892143,127.741114 352.760947,130.685975 345.33,130.670065 L345.33,130.670065 Z" id="Path"></path>
            <path d="M224,149.33 C254.201196,149.33 281.428587,167.522761 292.986085,195.425028 C304.543582,223.327295 298.155134,255.444193 276.799663,276.799663 C255.444193,298.155134 223.327295,304.543582 195.425028,292.986085 C167.522761,281.428587 149.33,254.201196 149.33,224 C149.374092,182.779175 182.779175,149.374092 224,149.33 M224,112 C162.144108,112 112,162.144108 112,224 C112,285.855892 162.144108,336 224,336 C285.855892,336 336,285.855892 336,224 C336,194.295753 324.200034,165.808115 303.195959,144.804041 C282.191885,123.799966 253.704247,112 224,112 Z" id="Shape"></path>
        </g>
    </g>
</svg>