<?xml version="1.0" encoding="UTF-8"?>
<svg width="1698px" height="1441px" viewBox="0 0 1698 1441" version="1.1" xmlns="http://www.w3.org/2000/svg" xmlns:xlink="http://www.w3.org/1999/xlink">
    <!-- Generator: Sketch 63.1 (92452) - https://sketch.com -->
    <title>invision</title>
    <desc>Created with Sketch.</desc>
    <g id="Page-1" stroke="none" stroke-width="1" fill="none" fill-rule="evenodd">
        <g id="invision" transform="translate(-1.000000, 0.000000)" fill="#FFFFFF" fill-rule="nonzero">
            <path d="M380.498047,301.572266 C463.603516,301.572266 533.222656,236.435547 533.222656,151.064453 C533.222656,65.7519531 463.603516,0.625 380.498047,0.625 C297.392578,0.625 227.792969,65.7519531 227.792969,151.064453 C227.792969,236.425781 297.392578,301.572266 380.498047,301.572266 M63.8378906,1107.43164 C54.8632813,1145.61523 50.3613281,1186.8457 50.3613281,1220.47852 C50.3613281,1353.00781 122.226562,1440.98633 274.951172,1440.98633 C401.611328,1440.98633 504.296875,1365.77148 578.232422,1244.31641 L533.085937,1425.49805 L784.599609,1425.49805 L928.349609,848.945313 C964.287109,702.96875 1033.90625,627.197266 1139.47266,627.197266 C1222.56836,627.197266 1274.21875,678.876953 1274.21875,764.189453 C1274.21875,788.90625 1271.97266,815.830078 1262.98828,845.039063 L1188.86719,1110.04883 C1177.63672,1148.23242 1173.16406,1186.43555 1173.16406,1222.34375 C1173.16406,1348.1543 1247.25586,1440.17578 1402.22656,1440.17578 C1534.73633,1440.17578 1640.2832,1354.87305 1698.68164,1150.48828 L1599.87305,1112.34375 C1550.45898,1249.26758 1507.7832,1274.02344 1474.0918,1274.02344 C1440.40039,1274.02344 1422.43164,1251.58203 1422.43164,1206.68945 C1422.43164,1186.47461 1426.94336,1164.04297 1433.66211,1137.03125 L1505.54688,878.847656 C1523.50586,818.222656 1530.25391,764.462891 1530.25391,715.068359 C1530.25391,521.923828 1413.45703,421.123047 1271.97266,421.123047 C1139.47266,421.123047 1004.70703,540.644531 937.34375,666.435547 L986.738281,440.654297 L602.714844,440.654297 L548.808594,639.521484 L728.486328,639.521484 L617.841797,1082.49023 C530.957031,1275.63477 371.357422,1278.76953 351.328125,1274.28711 C318.4375,1266.86523 297.402344,1254.375 297.402344,1211.64063 C297.402344,1186.98242 301.894531,1151.5625 313.125,1108.85742 L481.582031,440.654297 L54.8632813,440.654297 L0.95703125,639.521484 L178.369141,639.521484 L63.8476563,1107.43164" id="Shape"></path>
        </g>
    </g>
</svg>