<?xml version="1.0" encoding="UTF-8"?>
<svg width="448px" height="448px" viewBox="0 0 448 448" version="1.1" xmlns="http://www.w3.org/2000/svg" xmlns:xlink="http://www.w3.org/1999/xlink">
    <!-- Generator: Sketch 63.1 (92452) - https://sketch.com -->
    <title>logo-linkedin</title>
    <desc>Created with Sketch.</desc>
    <g id="Page-1" stroke="none" stroke-width="1" fill="none" fill-rule="evenodd">
        <g id="logo-linkedin" fill="#FFFFFF" fill-rule="nonzero">
            <path d="M412.17,0 L38.28,0 C17.85,0 0,14.7 0,34.89 L0,409.61 C0,429.91 17.85,448 38.28,448 L412.06,448 C432.6,448 448.000691,429.79 448.000691,409.61 L448.000691,34.89 C448.12,14.7 432.6,0 412.17,0 Z M138.87,373.43 L74.69,373.43 L74.69,173.88 L138.87,173.88 L138.87,373.43 Z M109,143.54 L108.54,143.54 C88,143.54 74.7,128.25 74.7,109.11 C74.7,89.62 88.35,74.69 109.35,74.69 C130.35,74.69 143.2,89.51 143.66,109.11 C143.65,128.25 130.35,143.54 109,143.54 Z M373.43,373.43 L309.25,373.43 L309.25,264.32 C309.25,238.18 299.91,220.32 276.69,220.32 C258.95,220.32 248.45,232.32 243.78,244.01 C242.03,248.21 241.56,253.93 241.56,259.77 L241.56,373.43 L177.38,373.43 L177.38,173.88 L241.56,173.88 L241.56,201.65 C250.9,188.35 265.49,169.21 299.44,169.21 C341.57,169.21 373.44,196.98 373.44,256.85 L373.43,373.43 Z" id="Shape"></path>
        </g>
    </g>
</svg>