<?xml version="1.0" encoding="UTF-8"?>
<svg width="300px" height="300px" viewBox="0 0 300 300" version="1.1" xmlns="http://www.w3.org/2000/svg" xmlns:xlink="http://www.w3.org/1999/xlink">
    <!-- Generator: Sketch 63.1 (92452) - https://sketch.com -->
    <title>principle</title>
    <desc>Created with Sketch.</desc>
    <defs>
        <linearGradient x1="50%" y1="0%" x2="50%" y2="100%" id="linearGradient-1">
            <stop stop-color="#FFFFFF" offset="0%"></stop>
            <stop stop-color="#F2F2F2" offset="100%"></stop>
        </linearGradient>
    </defs>
    <g id="Page-1" stroke="none" stroke-width="1" fill="none" fill-rule="evenodd">
        <g id="principle">
            <path d="M150,0 C232.842712,0 300,67.1572875 300,150 C300,232.842712 232.842712,300 150,300 C67.1572875,300 0,232.842712 0,150 C0,67.1572875 67.1572875,0 150,0 Z M153.905241,61.25 L153.272246,61.25 L152.122599,61.2593357 C114.257776,61.8747058 83.749665,92.8337075 83.749665,130.933494 L83.749665,130.933494 L83.749665,217.750113 C84.5575437,217.586099 85.393717,217.5 86.25,217.5 C93.1535594,217.5 98.75,223.096441 98.75,230 C98.75,234.952494 95.8698596,239.232295 91.6931254,241.255636 C95.4655597,244.375741 100.301709,246.25 105.574607,246.25 C117.628005,246.25 127.399215,236.456229 127.399215,224.375 L127.399215,224.375 L127.399215,130.933494 L127.402682,130.504653 C127.63118,116.380323 139.126822,105 153.272246,105 L153.272246,105 L153.905241,105 L154.327914,105.003393 C167.964437,105.222559 178.67246,116.031114 178.83833,129.645774 L178.83833,129.645774 L178.839,129.872 L178.828413,130.122649 C178.096387,144.090077 166.360866,155.625 153.588743,155.625 C141.535346,155.625 131.764136,165.418771 131.764136,177.5 C131.764136,189.581229 141.535346,199.375 153.588743,199.375 L153.588743,199.375 L154.697582,199.365639 C190.491374,198.761063 220.519377,168.950415 222.418593,132.402653 L222.418593,132.402653 L222.464,131.36 L222.468339,131.270187 L222.482,130.766 L222.489226,130.203175 L222.489,130.133 L222.483993,129.050346 C222.007841,91.465673 191.700147,61.25 153.905241,61.25 L153.905241,61.25 Z" id="Combined-Shape" fill="url(#linearGradient-1)" fill-rule="nonzero"></path>
            <g id="Combined-Shape" transform="translate(83.000000, 61.000000)">
                <g id="path-3-link"></g>
            </g>
            <circle id="Oval-2-Copy" fill="#F7F7F7" fill-rule="nonzero" cx="153.75" cy="177.5" r="13.75"></circle>
        </g>
    </g>
</svg>