<?xml version="1.0" encoding="UTF-8"?>
<svg width="96px" height="86px" viewBox="0 0 96 86" version="1.1" xmlns="http://www.w3.org/2000/svg" xmlns:xlink="http://www.w3.org/1999/xlink">
    <!-- Generator: Sketch 63.1 (92452) - https://sketch.com -->
    <title>Artboard</title>
    <desc>Created with Sketch.</desc>
    <g id="Artboard" stroke="none" stroke-width="1" fill="none" fill-rule="evenodd">
        <g id="sketch" fill="#FFFFFF" fill-rule="nonzero">
            <path d="M48,86 L47.847,85.824 L47.875,85.773 L48,86 Z M0,31 L17.775,31 L47.867,85.758 L47.839,85.816 L0,31 Z M74.258,31 L47.876,85.739 L21.739,31 L74.258,31 Z M21,3 L17.661,28.283 L0,31 L21,3 Z M48,0 L72.203,28 L23.797,28 L48,0 Z M75,3 L75,26.55 L48,0 L75,3 Z M96,31 L78.339,28.283 L75,3 L96,31 Z M48,86 L47.884,85.757 L77.975,31 L96,31 L48,86 Z M21,3 L48,0 L21,26.55 L21,3 Z" id="Shape"></path>
        </g>
    </g>
</svg>